<svg width="32" height="29" viewBox="0 0 32 29" fill="none" xmlns="http://www.w3.org/2000/svg">
<path fill-rule="evenodd" clip-rule="evenodd" d="M27.5179 5.01197V7.34519H11.1527V6.19248C11.1527 5.89037 10.8635 5.64368 10.5091 5.64368H6.60868C6.25426 5.64368 5.96507 5.89037 5.96507 6.19248V7.20684C5.51367 7.01544 5.19098 6.6304 5.19098 6.19248C5.19098 5.53297 5.80286 5.01197 6.57695 5.01197H27.5179ZM9.92722 6.74112V9.07465L8.86571 8.68931C8.7846 8.66166 8.70349 8.64784 8.62238 8.64784C8.54479 8.64784 8.46368 8.66166 8.38257 8.68931L7.25405 9.10169V6.74112H9.92722ZM29.2583 8.41499V9.48477H11.1527V8.41499H29.2583ZM25.3296 12.6712C26.1002 12.6712 26.7138 13.1925 26.7138 13.849C26.7138 14.2891 26.3929 14.7023 25.9415 14.866V13.849C25.9415 13.5215 25.6505 13.2721 25.2961 13.2721H21.3657C20.9778 13.2721 20.7204 13.5215 20.7204 13.849V15.0042H4.32345V12.6712H25.3296ZM24.7477 14.3447V16.7604L23.621 16.3488C23.524 16.3203 23.4588 16.3203 23.3618 16.3203C23.3001 16.3203 23.2031 16.3203 23.1378 16.3488L22.0746 16.7334V14.3447H24.7477ZM25.3913 10.5574C27.5179 10.5574 29.2583 12.0116 29.2583 13.876C29.2583 14.7548 28.8386 15.5811 28.1333 16.2106C27.5179 16.7334 26.7773 17.0353 25.9732 17.1435V16.0468C27.1635 15.799 28.0028 14.8931 28.0028 13.849C28.0028 12.6156 26.8425 11.5985 25.3913 11.5985H2.74178V10.5574H25.3913ZM20.7856 16.1009V17.1706H2.71003V16.1009H20.7856ZM27.5179 20.3825V22.7156H11.1527V21.5633C11.1527 21.2613 10.8635 21.0149 10.5091 21.0149H6.60868C6.25426 21.0149 5.96507 21.2613 5.96507 21.5633V22.5804C5.51367 22.3866 5.19098 22.0035 5.19098 21.5633C5.19098 20.9038 5.80286 20.3825 6.57695 20.3825H27.5179ZM9.92722 22.1116V24.4447L8.86571 24.0631C8.7846 24.0346 8.70349 24.0211 8.62238 24.0211C8.54479 24.0211 8.46368 24.0346 8.38257 24.0631L7.25405 24.4733V22.1116H9.92722ZM29.2583 18.2417V19.2858H6.60868C5.15925 19.2858 4.00075 20.2998 4.00075 21.5362C4.00075 22.5803 4.83657 23.4862 5.99858 23.7326V24.8308C5.19099 24.7196 4.48214 24.3651 3.87027 23.8964C3.16142 23.2654 2.74178 22.4136 2.74178 21.5633C2.74178 19.723 4.48215 18.2417 6.64219 18.2417H29.2583ZM6.64219 1.77271C3.83855 1.77271 1.48631 3.72089 1.48631 6.16469C1.48631 7.31755 2.03293 8.41499 3.00274 9.2384C3.06446 9.32103 3.16143 9.37661 3.26018 9.45773H2.09817C1.74374 9.45773 1.45456 9.67858 1.45456 10.0076V12.1198C1.45456 12.4218 1.74374 12.6712 2.09817 12.6712H3.16144V15.0298H2.09817C1.74374 15.0298 1.45456 15.2792 1.45456 15.5811V17.7204C1.45456 18.0224 1.74374 18.2687 2.09817 18.2687H3.26018C2.19514 19.0665 1.48631 20.2473 1.48631 21.5903C1.48631 22.7712 2.03293 23.8693 3.00274 24.6911C3.96903 25.5173 5.25623 25.9545 6.60868 25.9545H16.0512C16.4056 25.9545 16.6948 25.7081 16.6948 25.4062C16.6948 25.1042 16.4056 24.8579 16.0512 24.8579H11.1527V23.7882H29.2583V24.8579H18.9818C18.6273 24.8579 18.3364 25.1042 18.3364 25.4062C18.3364 25.7081 18.6273 25.9545 18.9818 25.9545H29.9019C30.2563 25.9545 30.5455 25.7081 30.5455 25.4062V23.2654C30.5455 22.9619 30.2563 22.7156 29.9019 22.7156H28.8386V20.3554H29.9019C30.2563 20.3554 30.5455 20.1091 30.5455 19.8071V17.6919C30.5455 17.3629 30.2563 17.1435 29.9019 17.1435H28.7116C28.8086 17.0624 28.9356 17.0068 29.0008 16.9242C29.9671 16.1009 30.4838 15.0042 30.4838 13.849C30.4838 12.5044 29.8084 11.3251 28.7116 10.5018H29.9019C30.2563 10.5018 30.5455 10.2825 30.5455 9.952V7.83856C30.5455 7.53644 30.2563 7.28976 29.9019 7.28976H28.8386V4.92905L29.9019 4.98433C30.2563 4.98433 30.5455 4.73765 30.5455 4.43553V2.3215C30.5455 1.99174 30.2563 1.77271 29.9019 1.77271H25.6505C25.2961 1.77271 25.0069 1.99174 25.0069 2.3215C25.0069 2.62346 25.2961 2.87014 25.6505 2.87014H29.29V3.91229H6.60868C5.15925 3.91229 4.00075 4.92904 4.00075 6.16469C4.00075 7.20683 4.83657 8.11287 5.99858 8.35955V9.45773C5.19099 9.34806 4.48214 9.04611 3.87027 8.52556C3.16142 7.89384 2.74178 7.04308 2.74178 6.19248C2.74178 4.38025 4.48215 2.87014 6.64219 2.87014H22.7499C23.1379 2.87014 23.3953 2.62346 23.3953 2.3215C23.3953 1.99174 23.1379 1.77271 22.7499 1.77271H6.64219Z" fill="white"/>
</svg>
