<svg width="30" height="21" viewBox="0 0 30 21" fill="none" xmlns="http://www.w3.org/2000/svg">
<path fill-rule="evenodd" clip-rule="evenodd" d="M23.4644 20.3H7.56369C7.42679 20.3 7.31573 20.196 7.31573 20.0677V4.66601C7.31573 4.66117 7.31573 4.65754 7.31573 4.65391C7.31573 4.64907 7.31573 4.64544 7.31573 4.6406C7.31961 4.58737 7.34674 4.54139 7.38677 4.50389C7.38677 4.50389 7.38678 4.50388 7.39065 4.50025C11.3749 0.816544 11.721 0.692049 11.876 0.700397H23.4696C23.6065 0.700397 23.7175 0.804082 23.7175 0.932692V9.13771C23.7175 9.26596 23.6065 9.37001 23.4696 9.37001C23.3314 9.37001 23.2203 9.26596 23.2203 9.13771V1.16499H12.2621V4.66601C12.2621 4.74103 12.2272 4.81119 12.1652 4.86443C11.925 5.07253 10.4618 5.08947 7.81297 4.91525V19.8391H23.2164V18.317C23.2164 18.1888 23.3275 18.0847 23.4644 18.0847C23.6026 18.0847 23.7136 18.1888 23.7136 18.317V20.0714C23.7136 20.196 23.6026 20.3 23.4644 20.3ZM8.13196 4.46638C9.71144 4.56196 11.318 4.60431 11.7662 4.5293V1.26444C11.2108 1.67931 9.63137 3.08591 8.13196 4.46638ZM17.5107 16.9196H14.3969C14.2587 16.9196 14.1477 16.8156 14.1477 16.6873C14.1477 16.5579 14.2587 16.455 14.3969 16.455H17.5107C17.6489 16.455 17.7599 16.5579 17.7599 16.6873C17.7599 16.8156 17.6489 16.9196 17.5107 16.9196ZM13.3934 16.9196H11.7352C11.597 16.9196 11.4859 16.8156 11.4859 16.6873C11.4859 16.5579 11.597 16.455 11.7352 16.455H13.3934C13.5316 16.455 13.6427 16.5579 13.6427 16.6873C13.6427 16.8156 13.5316 16.9196 13.3934 16.9196ZM12.3383 14.9657C11.1049 14.9657 10.1467 14.9572 10.0575 14.9367C9.92452 14.9076 9.84058 14.783 9.87158 14.6584C9.90257 14.5386 10.0266 14.46 10.1596 14.4842C10.4566 14.5132 14.712 14.5011 17.5107 14.4805C17.6489 14.4805 17.7599 14.5846 17.7599 14.708C17.7599 14.8374 17.6489 14.9403 17.5158 14.9403C16.2592 14.9536 14.0327 14.9657 12.3383 14.9657ZM12.3603 13.0868C11.176 13.0868 10.2345 13.0819 10.0847 13.0662C9.94647 13.0492 9.85349 12.9331 9.86641 12.8085C9.88449 12.6802 10.0046 12.5931 10.1415 12.6052C10.4346 12.6391 14.889 12.6222 17.8129 12.6052C17.9498 12.6052 18.0608 12.7093 18.0608 12.8339C18.0608 12.9621 17.9498 13.0662 17.8168 13.0662C17.3376 13.0698 14.468 13.0868 12.3603 13.0868ZM10.3765 11.6228C10.2745 11.6228 10.1776 11.5599 10.1415 11.4643C10.0976 11.3445 10.1686 11.2114 10.2965 11.1703C10.3236 11.1618 10.3675 11.1497 11.4859 11.1413C11.4911 9.80073 11.495 7.92178 11.4911 7.65198C11.4859 7.63141 11.4859 7.61569 11.4859 7.59391C11.495 7.4705 11.6099 7.36646 11.7429 7.37493C11.9831 7.3834 11.9831 7.58665 11.987 7.76451C11.987 7.86372 11.987 8.0089 11.987 8.18312C11.987 8.53156 11.987 8.99253 11.987 9.45228C11.987 10.1455 11.9831 10.8388 11.9831 11.1413C12.3021 11.1413 12.6883 11.1413 13.1455 11.1364V8.40694C13.1455 8.2787 13.2565 8.17466 13.3934 8.17466C13.5316 8.17466 13.6427 8.2787 13.6427 8.40694V11.1364C14.0198 11.1364 14.437 11.1364 14.9071 11.1364V7.33742C14.9071 7.20917 15.0181 7.10511 15.155 7.10511C15.2932 7.10511 15.403 7.20917 15.403 7.33742V11.1364C15.7633 11.1364 16.1533 11.1364 16.5653 11.1413V8.40694C16.5653 8.2787 16.6764 8.17466 16.8146 8.17466C16.9515 8.17466 17.0625 8.2787 17.0625 8.40694V11.1449C17.4138 11.1449 17.7858 11.1497 18.1758 11.1497V9.59384C18.1758 9.46559 18.2869 9.36154 18.425 9.36154C18.5619 9.36154 18.673 9.46559 18.673 9.59384V11.1534C19.1483 11.1582 19.6532 11.1582 20.1866 11.1618V7.34105C20.1866 7.2128 20.2977 7.10875 20.4346 7.10875C20.5715 7.10875 20.6826 7.2128 20.6826 7.34105V11.3941C20.6826 11.4558 20.6567 11.5139 20.6115 11.5599C20.5676 11.601 20.5018 11.6264 20.4385 11.6264C19.3614 11.6228 18.1319 11.618 16.9076 11.6143C16.8546 11.6301 16.7874 11.6301 16.7345 11.6143C13.6646 11.6059 10.6968 11.601 10.4385 11.6264C10.4075 11.6228 10.3946 11.6228 10.3765 11.6228ZM20.7278 5.59882H17.0096C16.8714 5.59882 16.7616 5.49599 16.7616 5.36653C16.7616 5.23828 16.8714 5.13424 17.0096 5.13424H20.7278C20.8647 5.13424 20.9757 5.23828 20.9757 5.36653C20.9757 5.49599 20.8647 5.59882 20.7278 5.59882ZM20.7278 3.86144H15.403C15.2661 3.86144 15.155 3.7574 15.155 3.62915C15.155 3.5009 15.2661 3.39685 15.403 3.39685H20.7278C20.8647 3.39685 20.9757 3.5009 20.9757 3.62915C20.9757 3.7574 20.8647 3.86144 20.7278 3.86144Z" fill="white"/>
<path fill-rule="evenodd" clip-rule="evenodd" d="M4.09474 13.8876H2.142C2.00382 13.8876 1.89146 13.7799 1.89146 13.6456C1.89146 13.5113 2.00382 13.4036 2.142 13.4036H4.09474C4.23292 13.4036 4.34528 13.5113 4.34528 13.6456C4.34528 13.7799 4.23292 13.8876 4.09474 13.8876Z" fill="white"/>
<path fill-rule="evenodd" clip-rule="evenodd" d="M4.09474 18.727C3.95526 18.727 3.8442 18.623 3.8442 18.4935V8.66569C3.8442 8.20836 3.51227 7.8212 3.11837 7.8212C2.72447 7.8212 2.39254 8.20836 2.39254 8.66569V18.4935C2.39254 18.623 2.28148 18.727 2.142 18.727C2.00382 18.727 1.89146 18.623 1.89146 18.4935V8.66569C1.89146 7.94581 2.44163 7.35419 3.11837 7.35419C3.79511 7.35419 4.34528 7.94097 4.34528 8.66569V18.4935C4.34528 18.623 4.23292 18.727 4.09474 18.727Z" fill="white"/>
<path fill-rule="evenodd" clip-rule="evenodd" d="M3.18686 20.3003C3.10162 20.3003 3.02153 20.2604 2.97633 20.1975L1.92896 18.7335C1.87988 18.667 1.87987 18.5847 1.9212 18.5133C1.96123 18.4432 2.04132 18.3996 2.13043 18.396C4.11673 18.3282 4.17482 18.3802 4.26522 18.454C4.3143 18.4976 4.34531 18.5569 4.34531 18.6162C4.34531 18.6863 4.34531 18.7384 3.41028 20.1866C3.36508 20.2531 3.28499 20.2967 3.19975 20.2967C3.19071 20.3003 3.18686 20.3003 3.18686 20.3003ZM2.58245 18.8243L3.17781 19.6506C3.38315 19.3288 3.58076 19.0179 3.70603 18.8085C3.42836 18.8049 3.01251 18.8122 2.58245 18.8243Z" fill="white"/>
<path fill-rule="evenodd" clip-rule="evenodd" d="M0.851838 13.767C0.712359 13.767 0.600006 13.6629 0.600006 13.5347V9.91112C0.600006 9.30134 0.744664 8.89483 1.03266 8.69157C1.23414 8.55001 1.44205 8.55848 1.53245 8.57058H4.09347C4.23295 8.57058 4.3453 8.67462 4.3453 8.80287C4.3453 8.93233 4.23295 9.03517 4.09347 9.03517H1.50921C1.48726 9.03517 1.46401 9.03153 1.44205 9.0279C1.44205 9.0279 1.44205 9.0279 1.43688 9.0279C1.42397 9.0279 1.37876 9.03155 1.32968 9.06905C1.26123 9.12229 1.10367 9.30497 1.10367 9.91112V13.5347C1.10367 13.6629 0.991318 13.767 0.851838 13.767Z" fill="white"/>
<path fill-rule="evenodd" clip-rule="evenodd" d="M24.9444 17.7596C22.488 17.7596 20.4888 15.8879 20.4888 13.5855C20.4888 11.2831 22.488 9.41144 24.9444 9.41144C27.4021 9.41144 29.4 11.2831 29.4 13.5855C29.4 15.8879 27.4021 17.7596 24.9444 17.7596ZM24.9444 9.87845C22.7631 9.87845 20.9873 11.542 20.9873 13.5855C20.9873 15.629 22.7631 17.2926 24.9444 17.2926C27.1257 17.2926 28.9015 15.629 28.9015 13.5855C28.9015 11.542 27.1257 9.87845 24.9444 9.87845Z" fill="white"/>
<path fill-rule="evenodd" clip-rule="evenodd" d="M24.0597 15.4606C23.9977 15.4606 23.9318 15.4401 23.8828 15.3953L22.1122 13.7499C22.014 13.6591 22.014 13.5152 22.1122 13.4244C22.209 13.3337 22.3653 13.3337 22.4621 13.4244L24.0597 14.9077L26.91 12.2617C27.0069 12.171 27.1631 12.171 27.26 12.2617C27.3581 12.3525 27.3581 12.4964 27.26 12.5872L24.2379 15.3953C24.1889 15.4364 24.1268 15.4606 24.0597 15.4606Z" fill="white"/>
</svg>
