<svg width="32" height="29" viewBox="0 0 32 29" fill="none" xmlns="http://www.w3.org/2000/svg">
<path fill-rule="evenodd" clip-rule="evenodd" d="M11.5291 5.29999C9.89819 5.29999 8.39821 5.82639 7.25457 6.84479C7.09275 6.99167 7.09275 7.28287 7.25457 7.42735C7.33821 7.50079 7.45275 7.53759 7.57093 7.53759C7.6873 7.53759 7.81093 7.50079 7.90729 7.42735C8.88729 6.55343 10.16 6.08831 11.5291 6.08831C12.9309 6.08831 14.2037 6.55343 15.18 7.42735C15.2637 7.50079 15.3855 7.53759 15.5091 7.53759C15.6309 7.53759 15.7528 7.50079 15.8364 7.42735C15.9964 7.28287 15.9964 6.99167 15.8364 6.84479C14.6928 5.82639 13.1582 5.29999 11.5291 5.29999Z" fill="white"/>
<path fill-rule="evenodd" clip-rule="evenodd" d="M20.0764 17.4469L21.3 18.5537L20.5382 19.2541L19.2818 18.1472C19.58 17.9416 19.8127 17.6795 20.0764 17.4469ZM11.5528 1.30318C14.2546 1.30318 16.9527 2.21406 18.9855 4.03582C22.9218 7.50542 23.0855 12.9291 19.6473 16.5728C19.2164 17.0673 18.7855 17.4176 18.2909 17.7971C16.3491 19.2344 13.9546 19.9518 11.5582 19.9518C8.85094 19.9518 6.14002 19.0385 4.06911 17.2142C-0.0636187 13.5707 -0.0636187 7.65246 4.06911 4.03582C6.13638 2.21406 8.85093 1.30318 11.5528 1.30318ZM22.5691 18.7177C22.6582 18.7177 22.74 18.7496 22.7873 18.8181L24.0764 19.8368L21.8964 21.7614L20.8055 20.5664C20.7055 20.4195 20.7055 20.2163 20.8055 20.1281L22.2909 18.8181C22.3637 18.7569 22.4691 18.7177 22.5691 18.7177ZM24.8382 20.3339L30.1618 24.4451C31.0564 25.1429 31.12 26.3966 30.2291 27.1557C29.8182 27.5157 29.2964 27.692 28.7746 27.692C28.1964 27.692 27.6182 27.4789 27.1873 27.0675L22.5582 22.3441L24.8382 20.3339ZM11.5273 0.50238C8.58364 0.50238 5.64183 1.4843 3.40911 3.45294C-1.08726 7.4467 -1.08726 13.8621 3.40911 17.7971C5.66184 19.7829 8.6 20.755 11.5273 20.755C14.02 20.755 16.5018 20.0523 18.5546 18.6712L19.9109 19.8662C19.7127 20.275 19.7473 20.7697 20.1109 21.0904L26.5564 27.5915C27.16 28.1989 27.9928 28.4976 28.8273 28.4976C29.5982 28.4976 30.3673 28.2429 30.9564 27.7385C32.1782 26.6293 32.1146 24.8515 30.7909 23.8598L23.4164 18.1766C23.1764 17.9808 22.8764 17.895 22.58 17.895C22.3873 17.895 22.1964 17.9317 22.0273 18.0003L20.6382 16.8054C24.1109 12.8704 23.8455 7.09662 19.6473 3.45294C17.4128 1.4843 14.4727 0.50238 11.5273 0.50238Z" fill="white"/>
<path fill-rule="evenodd" clip-rule="evenodd" d="M12.7127 2.89996C12.4764 2.89996 12.2782 3.04396 12.2491 3.283C12.1819 3.54412 12.3491 3.7174 12.6455 3.74668C14.3964 3.97852 15.9146 4.64716 17.14 5.7526C20.2455 8.48332 20.2455 12.9294 17.14 15.66C15.9146 16.6752 14.3309 17.3731 12.6455 17.578C12.4128 17.6342 12.2491 17.8392 12.2491 18.071C12.2819 18.2736 12.4782 18.42 12.6782 18.42H12.7764C14.7273 18.1588 16.4455 17.4024 17.8 16.2115C21.2691 13.1612 21.2691 8.19292 17.8 5.14252C16.4455 3.92236 14.7273 3.16589 12.7764 2.90477C12.7546 2.90237 12.7309 2.89996 12.7127 2.89996Z" fill="white"/>
<path fill-rule="evenodd" clip-rule="evenodd" d="M10.4273 2.9024C10.4109 2.9024 10.3946 2.90241 10.3782 2.90481C8.39274 3.04881 6.57091 3.83457 5.11455 5.08401C1.64 8.13441 1.64 13.132 5.11455 16.1822C6.57091 17.4317 8.39274 18.2174 10.3782 18.42H10.4109C10.6764 18.42 10.8418 18.2736 10.8764 18.071C10.9055 17.8392 10.7091 17.6342 10.4454 17.6342C8.6909 17.4317 7.03272 16.763 5.74363 15.6307C2.6309 12.9002 2.6309 8.42464 5.74363 5.72336C7.03272 4.58864 8.62363 3.89312 10.4454 3.71744C10.7091 3.65888 10.9055 3.4856 10.8764 3.28304C10.8455 3.06592 10.6418 2.9024 10.4273 2.9024Z" fill="white"/>
</svg>
