<svg width="63" height="47" viewBox="0 0 63 47" fill="none" xmlns="http://www.w3.org/2000/svg">
<circle cx="24.5" cy="23.5" r="23.5" fill="#FBFBFB"/>
<g clip-path="url(#clip0_40000240_2964)">
<path d="M34.96 21.5615C34.8906 21.4138 34.7426 21.3193 34.5787 21.3193H33.3332C32.5413 17.022 28.7678 13.7552 24.2449 13.7552C19.1476 13.7552 15 17.9028 15 23.0002C15 28.0975 19.1471 32.2446 24.2449 32.2446C27.5346 32.2446 30.6026 30.474 32.2515 27.6247C32.4839 27.2226 32.3469 26.709 31.9443 26.4763C31.5426 26.2435 31.0286 26.3805 30.7967 26.7826C29.4469 29.1149 26.9363 30.5643 24.2449 30.5643C20.0744 30.5643 16.6808 27.1711 16.6808 23.001C16.6808 18.83 20.0744 15.4369 24.2449 15.4369C27.8372 15.4369 30.8469 17.9564 31.6137 21.3198H30.378C30.2141 21.3198 30.0665 21.4142 29.9967 21.5619C29.9273 21.7095 29.9499 21.8836 30.0546 22.0091L32.1558 24.5303C32.2358 24.6261 32.3537 24.6814 32.4788 24.6814C32.6035 24.6814 32.7218 24.6257 32.8013 24.5303L34.9026 22.0091C35.0072 21.8832 35.0294 21.7091 34.96 21.5615Z" fill="#0070BA"/>
<path d="M24.2449 15.8564C23.7807 15.8564 23.4045 16.2326 23.4045 16.6969V21.7963C23.0245 22.0627 22.7743 22.5018 22.7743 23.0005C22.7743 23.8116 23.4343 24.4716 24.2453 24.4716C24.4674 24.4716 24.6768 24.4184 24.8657 24.3295L27.7891 26.0167C27.9218 26.0937 28.0657 26.1298 28.2086 26.1298C28.4989 26.1298 28.7814 25.9792 28.9371 25.7094C29.169 25.3082 29.0316 24.7937 28.6291 24.5618L25.7027 22.872C25.6636 22.4278 25.4325 22.0397 25.0862 21.7972V16.6969C25.0853 16.233 24.7087 15.8564 24.2449 15.8564ZM24.2449 23.6303C23.8972 23.6303 23.6147 23.3474 23.6147 23.0005C23.6147 22.6533 23.8977 22.3703 24.2449 22.3703C24.5921 22.3703 24.8751 22.6533 24.8751 23.0005C24.8751 23.3474 24.5921 23.6303 24.2449 23.6303Z" fill="#0070BA"/>
</g>
<defs>
<clipPath id="clip0_40000240_2964">
<rect width="20" height="20" fill="white" transform="translate(15 13)"/>
</clipPath>
</defs>
</svg>
