<svg width="63" height="47" viewBox="0 0 63 47" fill="none" xmlns="http://www.w3.org/2000/svg">
<circle cx="24.5" cy="23.5" r="23.5" fill="#FBFBFB"/>
<path fill-rule="evenodd" clip-rule="evenodd" d="M17.6901 15.7183C19.1752 15.7183 20.3796 16.6433 20.3796 17.7839C20.3796 18.6298 19.7176 19.3572 18.7699 19.6766C19.7176 19.9961 20.3796 20.723 20.3796 21.5694V28.3133C20.3796 30.224 22.1584 31.7726 24.3525 31.7726C24.5456 31.7726 24.7362 31.7603 24.922 31.7371C23.9422 32.4958 22.5002 32.9019 20.7955 32.9019C17.7962 32.9019 15.3258 31.1206 15 28.8289V21.5694C15 20.723 15.662 19.9961 16.6104 19.6766C15.662 19.3572 15 18.6298 15 17.7839C15 16.6433 16.2044 15.7183 17.6901 15.7183Z" fill="#0070BA"/>
<path fill-rule="evenodd" clip-rule="evenodd" d="M24.9966 13C26.4823 13 27.6861 13.925 27.6861 15.0657C27.6861 15.9319 26.992 16.6736 26.0079 16.9807C26.992 17.2877 27.6861 18.0294 27.6861 18.8952V28.5909C27.6861 29.732 26.4823 30.6571 24.9966 30.6571C23.5109 30.6571 22.3065 29.732 22.3065 28.5909V18.8952C22.3065 18.0294 23.0006 17.2877 23.9847 16.9807C23.0006 16.6736 22.3065 15.9319 22.3065 15.0657C22.3065 13.925 23.5109 13 24.9966 13Z" fill="#0070BA"/>
<path fill-rule="evenodd" clip-rule="evenodd" d="M32.3099 15.7183C30.8248 15.7183 29.6204 16.6433 29.6204 17.7839C29.6204 18.6298 30.2824 19.3572 31.2301 19.6766C30.2824 19.9961 29.6204 20.723 29.6204 21.5694V28.3133C29.3983 30.4173 28.4999 32.1157 26.0381 32.8773C31.5386 33.5786 34.5835 31.1779 35 28.146V21.5694C35 20.723 34.3379 19.9961 33.3896 19.6766C34.3379 19.3572 35 18.6298 35 17.7839C35 16.6433 33.7956 15.7183 32.3099 15.7183Z" fill="#0070BA"/>
</svg>
