<svg width="63" height="47" viewBox="0 0 63 47" fill="none" xmlns="http://www.w3.org/2000/svg">
<circle cx="24.5" cy="23.5" r="23.5" fill="#FBFBFB"/>
<path d="M30.6653 18.5831L28.2589 20.9894L28.2653 21.0105L30.0926 27.7368C30.1239 27.8838 30.1201 28.036 30.0815 28.1813C30.0429 28.3265 29.9706 28.4606 29.8705 28.5726L29.2674 29.1758C29.2284 29.2213 29.1785 29.2563 29.1224 29.2775C29.0663 29.2987 29.0058 29.3054 28.9464 29.297C28.887 29.2886 28.8307 29.2654 28.7827 29.2295C28.7346 29.1936 28.6964 29.1461 28.6716 29.0915L26.2 24.6179L25.4158 23.8326L23.3421 25.9063C23.1044 26.1184 22.8388 26.2969 22.5526 26.4368L23.0158 27.96C23.0509 28.1052 23.0502 28.2568 23.0137 28.4016C22.9772 28.5465 22.9061 28.6803 22.8063 28.7915L22.6221 28.9768C22.5281 29.0701 22.4009 29.1225 22.2684 29.1225C22.1359 29.1225 22.0088 29.0701 21.9147 28.9768L20.82 27.8831L20.801 27.8621L19.9716 27.0347L19.9505 27.0137L18.8579 25.92C18.7646 25.8259 18.7122 25.6988 18.7122 25.5663C18.7122 25.4338 18.7646 25.3067 18.8579 25.2126L19.0432 25.0273C19.1546 24.928 19.2885 24.8572 19.4334 24.821C19.5782 24.7849 19.7297 24.7845 19.8747 24.82L21.3979 25.281C21.538 24.9949 21.7164 24.7293 21.9284 24.4915L24.0021 22.4179L23.2168 21.6347L18.7432 19.1631C18.6886 19.1383 18.6411 19.1001 18.6052 19.052C18.5693 19.004 18.5461 18.9477 18.5377 18.8883C18.5293 18.8289 18.536 18.7684 18.5572 18.7123C18.5784 18.6562 18.6134 18.6063 18.6589 18.5673L19.2621 17.9642C19.3742 17.8641 19.5083 17.7919 19.6535 17.7533C19.7987 17.7147 19.9509 17.7109 20.0979 17.7421L26.8242 19.5694L26.8453 19.5758L29.2516 17.1694C29.6411 16.7779 30.9579 16.0958 31.3495 16.4852C31.7389 16.8768 31.0558 18.1926 30.6653 18.5831Z" fill="#0070BA"/>
</svg>
