<svg width="21" height="20" viewBox="0 0 21 20" fill="none" xmlns="http://www.w3.org/2000/svg">
<g clip-path="url(#clip0_40000353_26670)">
<path d="M12.1265 6.66671H4.34877C4.20143 6.66671 4.06012 6.60818 3.95593 6.50399C3.85174 6.3998 3.79321 6.25849 3.79321 6.11115V3.88893C3.79321 3.74159 3.85174 3.60028 3.95593 3.49609C4.06012 3.39191 4.20143 3.33337 4.34877 3.33337H12.1265C12.2739 3.33337 12.4152 3.39191 12.5194 3.49609C12.6236 3.60028 12.6821 3.74159 12.6821 3.88893V6.11115C12.6821 6.25849 12.6236 6.3998 12.5194 6.50399C12.4152 6.60818 12.2739 6.66671 12.1265 6.66671ZM4.90432 5.5556H11.571V4.41115H4.90432V5.5556Z" fill="#0070BA"/>
<path d="M12.1265 7.82227H4.34877C4.20143 7.82227 4.06012 7.8808 3.95593 7.98498C3.85174 8.08917 3.79321 8.23048 3.79321 8.37782V10.5556C3.79321 10.7029 3.85174 10.8442 3.95593 10.9484C4.06012 11.0526 4.20143 11.1112 4.34877 11.1112H10.6599L12.6821 9.0556V8.37782C12.6821 8.23048 12.6236 8.08917 12.5194 7.98498C12.4152 7.8808 12.2739 7.82227 12.1265 7.82227ZM11.571 10H4.90432V8.88893H11.571V10Z" fill="#0070BA"/>
<path d="M6.60456 17.5054V17.4721L6.78234 16.6998H2.68234V2.22207H13.7934V7.91652L14.9046 6.86652V1.66652C14.9046 1.51917 14.846 1.37787 14.7418 1.27368C14.6377 1.16949 14.4963 1.11096 14.349 1.11096H2.12678C1.97944 1.11096 1.83813 1.16949 1.73395 1.27368C1.62976 1.37787 1.57123 1.51917 1.57123 1.66652V17.2221C1.57123 17.3694 1.62976 17.5107 1.73395 17.6149C1.83813 17.7191 1.97944 17.7776 2.12678 17.7776H6.57123C6.57581 17.6862 6.58695 17.5952 6.60456 17.5054Z" fill="#0070BA"/>
<path d="M12.6822 10.6499L12.2489 11.0888C12.3564 11.0666 12.4549 11.0131 12.5321 10.935C12.6092 10.8569 12.6614 10.7577 12.6822 10.6499Z" fill="#0070BA"/>
<path d="M3.79321 14.9666C3.79321 15.114 3.85174 15.2553 3.95593 15.3594C4.06012 15.4636 4.20143 15.5222 4.34877 15.5222H7.03766L7.20432 14.7999L7.27655 14.4944V14.4666H4.90432V13.3333H8.42655L9.53766 12.2222H4.34877C4.20143 12.2222 4.06012 12.2807 3.95593 12.3849C3.85174 12.4891 3.79321 12.6304 3.79321 12.7777V14.9666Z" fill="#0070BA"/>
<path d="M19.0656 9.26116L17.1934 7.38894C17.1103 7.30563 17.0116 7.23952 16.9029 7.19442C16.7942 7.14932 16.6777 7.1261 16.5601 7.1261C16.4424 7.1261 16.3259 7.14932 16.2172 7.19442C16.1085 7.23952 16.0098 7.30563 15.9267 7.38894L8.31005 15.0501L7.68227 17.7223C7.65877 17.8376 7.65824 17.9563 7.68072 18.0718C7.7032 18.1873 7.74824 18.2972 7.81326 18.3953C7.87829 18.4933 7.96202 18.5776 8.05966 18.6432C8.1573 18.7089 8.26693 18.7546 8.38227 18.7778C8.43954 18.7836 8.49723 18.7836 8.5545 18.7778C8.62257 18.7889 8.69198 18.7889 8.76005 18.7778L11.4545 18.1834L19.0656 10.5556C19.1488 10.473 19.2147 10.3748 19.2598 10.2665C19.3048 10.1583 19.328 10.0423 19.328 9.92505C19.328 9.80784 19.3048 9.69179 19.2598 9.58357C19.2147 9.47535 19.1488 9.37711 19.0656 9.2945V9.26116ZM10.8878 17.1723L8.8545 17.6223L9.34894 15.6056L15.0601 9.83339L16.6267 11.4001L10.8878 17.1723ZM17.2545 10.7723L15.6878 9.20561L16.5712 8.33339L18.1489 9.91116L17.2545 10.7723Z" fill="#0070BA"/>
</g>
<defs>
<clipPath id="clip0_40000353_26670">
<rect width="20" height="20" fill="white" transform="translate(0.460022)"/>
</clipPath>
</defs>
</svg>
