<svg width="21" height="20" viewBox="0 0 21 20" fill="none" xmlns="http://www.w3.org/2000/svg">
<path d="M4.5 4C3.96957 4 3.46086 4.21071 3.08579 4.58579C2.71071 4.96086 2.5 5.46957 2.5 6V7H18.5V6C18.5 5.46957 18.2893 4.96086 17.9142 4.58579C17.5391 4.21071 17.0304 4 16.5 4H4.5Z" fill="#918174" fill-opacity="0.51"/>
<path d="M4.5 4C3.96957 4 3.46086 4.21071 3.08579 4.58579C2.71071 4.96086 2.5 5.46957 2.5 6V7H18.5V6C18.5 5.46957 18.2893 4.96086 17.9142 4.58579C17.5391 4.21071 17.0304 4 16.5 4H4.5Z" fill="black" fill-opacity="0.59"/>
<path fill-rule="evenodd" clip-rule="evenodd" d="M18.5 9H2.5V14C2.5 14.5304 2.71071 15.0391 3.08579 15.4142C3.46086 15.7893 3.96957 16 4.5 16H16.5C17.0304 16 17.5391 15.7893 17.9142 15.4142C18.2893 15.0391 18.5 14.5304 18.5 14V9ZM4.5 13C4.5 12.7348 4.60536 12.4804 4.79289 12.2929C4.98043 12.1054 5.23478 12 5.5 12H6.5C6.76522 12 7.01957 12.1054 7.20711 12.2929C7.39464 12.4804 7.5 12.7348 7.5 13C7.5 13.2652 7.39464 13.5196 7.20711 13.7071C7.01957 13.8946 6.76522 14 6.5 14H5.5C5.23478 14 4.98043 13.8946 4.79289 13.7071C4.60536 13.5196 4.5 13.2652 4.5 13ZM9.5 12C9.23478 12 8.98043 12.1054 8.79289 12.2929C8.60536 12.4804 8.5 12.7348 8.5 13C8.5 13.2652 8.60536 13.5196 8.79289 13.7071C8.98043 13.8946 9.23478 14 9.5 14H10.5C10.7652 14 11.0196 13.8946 11.2071 13.7071C11.3946 13.5196 11.5 13.2652 11.5 13C11.5 12.7348 11.3946 12.4804 11.2071 12.2929C11.0196 12.1054 10.7652 12 10.5 12H9.5Z" fill="#918174" fill-opacity="0.51"/>
<path fill-rule="evenodd" clip-rule="evenodd" d="M18.5 9H2.5V14C2.5 14.5304 2.71071 15.0391 3.08579 15.4142C3.46086 15.7893 3.96957 16 4.5 16H16.5C17.0304 16 17.5391 15.7893 17.9142 15.4142C18.2893 15.0391 18.5 14.5304 18.5 14V9ZM4.5 13C4.5 12.7348 4.60536 12.4804 4.79289 12.2929C4.98043 12.1054 5.23478 12 5.5 12H6.5C6.76522 12 7.01957 12.1054 7.20711 12.2929C7.39464 12.4804 7.5 12.7348 7.5 13C7.5 13.2652 7.39464 13.5196 7.20711 13.7071C7.01957 13.8946 6.76522 14 6.5 14H5.5C5.23478 14 4.98043 13.8946 4.79289 13.7071C4.60536 13.5196 4.5 13.2652 4.5 13ZM9.5 12C9.23478 12 8.98043 12.1054 8.79289 12.2929C8.60536 12.4804 8.5 12.7348 8.5 13C8.5 13.2652 8.60536 13.5196 8.79289 13.7071C8.98043 13.8946 9.23478 14 9.5 14H10.5C10.7652 14 11.0196 13.8946 11.2071 13.7071C11.3946 13.5196 11.5 13.2652 11.5 13C11.5 12.7348 11.3946 12.4804 11.2071 12.2929C11.0196 12.1054 10.7652 12 10.5 12H9.5Z" fill="black" fill-opacity="0.59"/>
</svg>
