<svg width="75" height="75" viewBox="0 0 75 75" fill="none" xmlns="http://www.w3.org/2000/svg">
<g clip-path="url(#clip0_40000168_23435)">
<path fill-rule="evenodd" clip-rule="evenodd" d="M58.6606 4.30461L62.305 8.02461L63.3145 8.95599L67.2754 12.9103L70.3081 15.9396H58.6606V4.30461ZM17.6569 30.7549C22.1654 30.7549 25.8182 34.472 25.8182 38.8992V40.8385H25.3478C22.8626 40.2899 22.0884 36.9556 21.9301 36.9556C21.8531 36.4921 21.4681 36.1816 21.0746 36.1008C20.9976 36.088 20.9249 36.0838 20.8522 36.0838C20.48 36.0838 20.1677 36.2454 19.9153 36.5729C16.6559 40.6046 9.82062 40.6046 9.73935 40.6046H8.9651L8.88814 40.6811L8.72982 40.762V38.8992C8.72982 34.472 12.4598 30.7549 16.8827 30.7549H17.6569ZM8.57579 43.7815V47.3539C7.7203 47.2774 7.02312 46.4991 7.02312 45.6485C7.02312 45.0999 7.17712 44.6363 7.57065 44.2451C7.95562 44.2451 8.26784 44.0962 8.49454 43.7815H8.57579ZM26.1219 43.8623C26.3572 44.0196 26.5925 44.2451 26.9005 44.2451C27.2897 44.5598 27.448 45.0276 27.448 45.5677C27.5977 46.4991 26.9005 47.2774 26.045 47.3539V43.8623H26.1219ZM20.3004 39.2097C20.8479 40.4473 21.93 41.9187 23.795 42.6162V47.5793C23.718 50.6881 21.1559 53.1718 18.0504 53.1718H16.656C13.542 53.1718 10.9798 50.6116 10.9798 47.5793V42.8501C13.003 42.697 17.2719 41.9995 20.3004 39.2097ZM19.5218 55.3408V56.8888V56.9697L17.2719 59.296L15.1717 57.127V55.3408C15.6422 55.4173 16.1042 55.4174 16.656 55.4174H18.0504C18.5894 55.4174 19.0599 55.3408 19.5218 55.3408ZM56.3294 2.75402V17.1777C56.3294 17.8747 56.7956 18.3438 57.4928 18.3438H71.9378V71.8632H34.1978V67.3594C34.1978 62.0901 30.5491 59.4491 28.6072 58.8324L21.853 56.1148V54.6434C23.718 53.6354 25.1895 51.9257 25.737 49.7568C27.9869 49.7568 29.7749 47.9706 29.7749 45.6485C29.7749 44.2451 29.1546 43.0075 28.1452 42.31V39.2097C28.1452 33.7787 24.1073 29.3515 18.8247 28.8114V2.75402H56.3294ZM17.9692 0.5C17.2719 0.5 16.8057 0.969094 16.8057 1.66614V28.8922C11.2151 29.1261 6.71516 33.7787 6.71516 39.3585V42.4674C5.62441 43.2414 5.00846 44.4024 5.00846 45.8016C5.00846 48.0514 6.7921 49.9907 9.12332 49.9907C9.73927 52.0831 11.215 53.8693 13.003 54.8007V56.2722L6.00931 58.9898C4.07163 59.6873 0.5 62.2475 0.5 67.5168V73.3347C0.5 74.0322 0.970512 74.5 1.66774 74.5H6.79212C7.48935 74.5 7.95558 74.0322 7.95558 73.3347C7.95558 72.6372 7.48935 72.1737 6.79212 72.1737H2.82691V67.3594C2.82691 62.4729 6.63813 61.0014 6.79212 61.0014H6.94187L13.3152 58.5177L13.3922 58.5985L16.8057 61.9327C17.0367 62.0901 17.2719 62.1667 17.5799 62.1667C17.8921 62.1667 18.2044 62.0901 18.3627 61.7754L21.7034 58.4411L28.0682 60.9248H28.1452C28.1452 60.9248 32.1832 62.324 32.1832 67.2106V71.8632H10.9798C10.2825 71.8632 9.82059 72.4034 9.82059 73.0285C9.82059 73.726 10.2825 74.1853 10.9798 74.1853H73.3323C73.9525 74.1853 74.5 73.726 74.5 73.0285L74.2647 17.0211V16.7932V16.7149C74.2647 16.7149 74.2647 16.6367 74.1878 16.6367L74.1108 16.5589L73.9525 16.4024L64.9441 7.40539L58.344 0.81258L58.2671 0.734759L58.1901 0.578262C58.1901 0.578262 58.0404 0.578253 58.0404 0.5H17.9692Z" fill="white"/>
<path fill-rule="evenodd" clip-rule="evenodd" d="M31.6232 20.4885C30.9174 20.4885 30.4512 20.9874 30.4512 21.5517C30.4512 22.1871 30.9174 22.615 31.6232 22.615H50.2216C50.9273 22.615 51.4021 22.1871 51.4021 21.5517C51.4021 20.9874 50.9273 20.4885 50.2216 20.4885H31.6232Z" fill="white"/>
<path fill-rule="evenodd" clip-rule="evenodd" d="M31.6189 28.1521C30.9174 28.1521 30.4512 28.6582 30.4512 29.4194C30.4512 30.1807 30.9174 30.6953 31.6189 30.6953H59.6362C60.3378 30.6953 60.804 30.1807 60.804 29.4194C60.804 28.6582 60.3378 28.1521 59.6362 28.1521H31.6189Z" fill="white"/>
<path fill-rule="evenodd" clip-rule="evenodd" d="M31.6189 36.2241C30.9174 36.2241 30.4512 36.7302 30.4512 37.5C30.4512 38.1762 30.9174 38.7673 31.6189 38.7673H59.6362C60.3378 38.7673 60.804 38.1762 60.804 37.5C60.804 36.8153 60.2608 36.2241 59.6362 36.2241H31.6189Z" fill="white"/>
<path fill-rule="evenodd" clip-rule="evenodd" d="M31.6189 44.3047C30.9174 44.3047 30.4512 44.9043 30.4512 45.5805C30.4512 46.3418 30.9174 46.8564 31.6189 46.8564H59.6362C60.3378 46.8564 60.804 46.3418 60.804 45.5805C60.804 44.9043 60.2608 44.3047 59.6362 44.3047H31.6189Z" fill="white"/>
<path fill-rule="evenodd" clip-rule="evenodd" d="M31.6189 52.3894C30.9174 52.3894 30.4512 52.8147 30.4512 53.4484C30.4512 54.082 30.9174 54.5116 31.6189 54.5116H59.6362C60.3378 54.5116 60.804 54.082 60.804 53.4484C60.804 52.8827 60.2608 52.3894 59.6362 52.3894H31.6189Z" fill="white"/>
</g>
<defs>
<clipPath id="clip0_40000168_23435">
<rect width="74" height="74" fill="white" transform="translate(0.5 0.5)"/>
</clipPath>
</defs>
</svg>
