<svg width="20" height="20" viewBox="0 0 20 20" fill="none" xmlns="http://www.w3.org/2000/svg">
<g clip-path="url(#clip0_40000128_12669)">
<path fill-rule="evenodd" clip-rule="evenodd" d="M14.1363 12.4826H13.2535L12.9225 12.1516C14.0644 10.8786 14.6934 9.22736 14.688 7.51732C14.688 6.09881 14.2673 4.71216 13.4792 3.53272C12.6912 2.35327 11.571 1.434 10.2605 0.891162C8.94997 0.348322 7.5079 0.206291 6.11665 0.483028C4.7254 0.759765 3.44745 1.44284 2.44441 2.44588C1.44138 3.44892 0.7583 4.72686 0.481563 6.11811C0.204826 7.50937 0.346858 8.95144 0.889697 10.262C1.43254 11.5725 2.3518 12.6926 3.53125 13.4807C4.7107 14.2688 6.09735 14.6894 7.51586 14.6894C9.2259 14.6949 10.8772 14.0658 12.1501 12.924L12.4812 13.255V14.1377L17.9982 19.6547L19.6533 17.9996L14.1363 12.4826ZM7.51586 2.55202C8.64248 2.54737 9.7369 2.92771 10.6178 3.63005C11.4988 4.33238 12.1133 5.31457 12.3598 6.41392H9.67852L8.49788 8.17936L6.1035 3.65542L4.65805 6.41392H2.67193C2.91837 5.31457 3.53296 4.33238 4.41389 3.63005C5.29481 2.92771 6.38923 2.54737 7.51586 2.55202ZM7.51586 12.4826C6.28784 12.4952 5.09913 12.0502 4.18126 11.2343C3.26338 10.4184 2.68207 9.29004 2.55055 8.06902H5.66214L6.11454 7.20837L8.32134 11.3903L10.5281 8.08006H12.4812C12.3495 9.30006 11.7678 10.4272 10.8496 11.2413C9.93148 12.0553 8.74284 12.4979 7.51586 12.4826Z" fill="white"/>
</g>
<defs>
<clipPath id="clip0_40000128_12669">
<rect width="20" height="20" fill="white"/>
</clipPath>
</defs>
</svg>
