<svg width="75" height="75" viewBox="0 0 75 75" fill="none" xmlns="http://www.w3.org/2000/svg">
<mask id="mask0_40000168_23337" style="mask-type:luminance" maskUnits="userSpaceOnUse" x="4" y="7" width="67" height="61">
<path d="M70.7992 7.8999H4.19922V67.0999H70.7992V7.8999Z" fill="white"/>
</mask>
<g mask="url(#mask0_40000168_23337)">
<path fill-rule="evenodd" clip-rule="evenodd" d="M68.7998 23.9435V26.5459L55.0613 32.2712V29.5893L68.7998 23.9435ZM6.26132 23.9435L36.4679 36.4669V39.1488L6.26132 26.5459V23.9435ZM53.0706 30.4555V33.0658L38.4586 39.1488V36.4669L53.0706 30.4555ZM58.0492 33.2129V48.9227C57.052 49.7173 56.0548 50.4405 55.0613 51.1676V34.5121L58.0492 33.2129ZM54.1696 61.1561C55.1159 61.1561 55.8583 62.0699 55.8583 63.1148C55.8583 64.2035 54.9958 65.0021 54.0641 65.0021C53.0706 65.0021 52.339 64.1319 52.339 63.1148C52.339 62.0262 53.1979 61.1561 54.0641 61.1561C54.1005 61.1561 54.1369 61.1561 54.1696 61.1561ZM37.3741 7.8999C37.2649 7.8999 37.1666 7.93567 37.0647 8.01116L4.86742 21.4086C4.46709 21.5517 4.20508 21.9132 4.20508 22.3503V27.269C4.20508 27.71 4.46709 28.0677 4.86742 28.2862L14.8865 32.4142V36.1053C14.8865 36.7569 15.356 37.194 15.8874 37.194C16.4842 37.194 16.8845 36.7569 16.8845 36.1053V33.3599L37.0647 41.7551C37.1339 41.8306 37.334 41.8306 37.3995 41.8306C37.4687 41.8306 37.6616 41.8306 37.7307 41.7551L52.9359 35.3822V52.3992C48.0919 55.1487 42.7749 56.5949 37.334 56.5949C29.9607 56.5949 22.6566 53.8494 16.8191 48.9227V40.448C16.8191 39.8719 16.4151 39.3673 15.8182 39.3673C15.2214 39.3673 14.8283 39.8719 14.8283 40.448V49.3598C14.8283 49.7173 15.0212 50.0114 15.1559 50.1544C21.3973 55.5857 29.2984 58.7006 37.334 58.7006C42.7094 58.7006 48.0228 57.3219 52.9359 54.7156V59.0582C51.3419 59.4993 50.2136 61.0925 50.2136 63.0433C50.2136 65.2882 51.8696 67.0999 53.9294 67.0999C55.9857 67.0999 57.6488 65.2882 57.6488 63.0433C57.6488 61.0925 56.5207 59.5708 54.9266 59.0582V53.4839C56.5207 52.5462 58.0492 51.3106 59.5049 50.0829C59.7051 49.8644 59.8397 49.5068 59.8397 49.2883V32.3428L69.8661 28.1391C70.2628 27.9921 70.5285 27.6345 70.5285 27.1975V22.2787C70.7978 21.9132 70.5285 21.5517 70.1282 21.4086L49.0818 12.7154C48.9763 12.6677 48.8671 12.6438 48.747 12.6438C48.3685 12.6438 47.99 12.9061 47.8881 13.2954C47.688 13.8795 47.9573 14.5271 48.4195 14.6741L67.0129 22.3503L54.1951 27.71L37.9964 19.7399C37.8508 19.6605 37.7125 19.6247 37.5742 19.6247C37.1994 19.6247 36.8645 19.8988 36.668 20.32C36.4023 20.8285 36.668 21.4802 37.1339 21.7742L51.542 28.7907L37.4687 34.5876L8.05185 22.3503L37.4687 10.1884L44.7001 13.1564C44.8056 13.1802 44.9111 13.1961 45.0167 13.1961C45.4316 13.1961 45.8028 12.9657 45.9666 12.5048C46.0939 11.9922 45.8974 11.3406 45.3624 11.1221L37.7307 8.01116C37.5961 7.93567 37.4832 7.8999 37.3741 7.8999Z" fill="white"/>
</g>
</svg>
