<svg width="75" height="75" viewBox="0 0 75 75" fill="none" xmlns="http://www.w3.org/2000/svg">
<mask id="mask0_40000168_26369" style="mask-type:luminance" maskUnits="userSpaceOnUse" x="11" y="4" width="53" height="67">
<path d="M63.3996 4.19995H11.5996V70.8H63.3996V4.19995Z" fill="white"/>
</mask>
<g mask="url(#mask0_40000168_26369)">
<mask id="path-2-inside-1_40000168_26369" fill="white">
<path fill-rule="evenodd" clip-rule="evenodd" d="M51.2141 9.95996C50.6292 9.95996 50.1235 10.4243 50.1235 11.0183C50.1235 11.5439 50.6292 12.0012 51.2141 12.0012H55.9299C56.5818 12.0012 57.0145 12.4008 57.0145 12.9948V62.4948C57.0145 63.0888 56.5818 63.4812 55.9299 63.4812H14.8713C14.2134 63.4812 13.7807 63.0888 13.7807 62.4948V58.5383C13.7807 57.9443 13.3479 57.5519 12.6901 57.5519C12.0382 57.5519 11.6055 57.9443 11.6055 58.5383V62.4948C11.6055 64.14 13.0559 65.3928 14.7983 65.3928H15.8826V67.8983C15.8826 69.5435 17.3326 70.8 19.0754 70.8H60.1337C61.9495 70.8 63.3266 69.4823 63.3266 67.8983V66.714C63.3266 66.1164 62.8205 65.724 62.236 65.724C61.5837 65.724 61.1514 66.1164 61.1514 66.714V67.8983C61.1514 68.4923 60.6393 68.8848 60.0608 68.8848H18.9292C18.3502 68.8848 17.8446 68.4923 17.8446 67.8983V65.3928H55.8566C57.6664 65.3928 59.0495 64.0752 59.0495 62.4948V17.4768H60.1337C60.7127 17.4768 61.2243 17.9376 61.2243 18.4632V62.5559C61.2243 62.9555 61.7299 63.4164 62.3089 63.4164C62.9608 63.4164 63.3995 62.9556 63.3995 62.43V18.33C63.3995 16.6848 61.9495 15.4283 60.207 15.4283H59.1164V12.8616C59.1164 11.2128 57.6664 9.95996 55.9299 9.95996H51.2141Z"/>
</mask>
<path fill-rule="evenodd" clip-rule="evenodd" d="M51.2141 9.95996C50.6292 9.95996 50.1235 10.4243 50.1235 11.0183C50.1235 11.5439 50.6292 12.0012 51.2141 12.0012H55.9299C56.5818 12.0012 57.0145 12.4008 57.0145 12.9948V62.4948C57.0145 63.0888 56.5818 63.4812 55.9299 63.4812H14.8713C14.2134 63.4812 13.7807 63.0888 13.7807 62.4948V58.5383C13.7807 57.9443 13.3479 57.5519 12.6901 57.5519C12.0382 57.5519 11.6055 57.9443 11.6055 58.5383V62.4948C11.6055 64.14 13.0559 65.3928 14.7983 65.3928H15.8826V67.8983C15.8826 69.5435 17.3326 70.8 19.0754 70.8H60.1337C61.9495 70.8 63.3266 69.4823 63.3266 67.8983V66.714C63.3266 66.1164 62.8205 65.724 62.236 65.724C61.5837 65.724 61.1514 66.1164 61.1514 66.714V67.8983C61.1514 68.4923 60.6393 68.8848 60.0608 68.8848H18.9292C18.3502 68.8848 17.8446 68.4923 17.8446 67.8983V65.3928H55.8566C57.6664 65.3928 59.0495 64.0752 59.0495 62.4948V17.4768H60.1337C60.7127 17.4768 61.2243 17.9376 61.2243 18.4632V62.5559C61.2243 62.9555 61.7299 63.4164 62.3089 63.4164C62.9608 63.4164 63.3995 62.9556 63.3995 62.43V18.33C63.3995 16.6848 61.9495 15.4283 60.207 15.4283H59.1164V12.8616C59.1164 11.2128 57.6664 9.95996 55.9299 9.95996H51.2141Z" fill="white"/>
<path d="M15.8826 65.3928H19.3826V61.8928H15.8826V65.3928ZM17.8446 65.3928V61.8928H14.3446V65.3928H17.8446ZM59.0495 17.4768V13.9768H55.5495V17.4768H59.0495ZM59.1164 15.4283H55.6164V18.9283H59.1164V15.4283ZM51.2141 6.45996C48.8535 6.45996 46.6235 8.33774 46.6235 11.0183H53.6235C53.6235 12.5109 52.4049 13.46 51.2141 13.46V6.45996ZM46.6235 11.0183C46.6235 13.8072 49.0439 15.5012 51.2141 15.5012V8.50118C51.8286 8.50118 52.3814 8.73595 52.794 9.10813C53.2022 9.47642 53.6235 10.1303 53.6235 11.0183H46.6235ZM51.2141 15.5012H55.9299V8.50118H51.2141V15.5012ZM55.9299 15.5012C55.5439 15.5012 54.9175 15.3748 54.3495 14.8533C53.7553 14.3077 53.5145 13.5904 53.5145 12.9948H60.5145C60.5145 11.8052 60.0574 10.5911 59.0839 9.69715C58.1366 8.82735 56.9678 8.50118 55.9299 8.50118V15.5012ZM53.5145 12.9948V62.4948H60.5145V12.9948H53.5145ZM53.5145 62.4948C53.5145 61.896 53.7581 61.17 54.3629 60.6204C54.9363 60.0994 55.5607 59.9812 55.9299 59.9812V66.9812C56.9511 66.9812 58.1177 66.6668 59.0705 65.801C60.0546 64.9067 60.5145 63.6875 60.5145 62.4948H53.5145ZM55.9299 59.9812H14.8713V66.9812H55.9299V59.9812ZM14.8713 59.9812C15.2298 59.9812 15.8524 60.0949 16.428 60.6158C17.0364 61.1665 17.2807 61.8954 17.2807 62.4948H10.2807C10.2807 63.6882 10.7413 64.9102 11.7305 65.8056C12.6869 66.6713 13.8548 66.9812 14.8713 66.9812V59.9812ZM17.2807 62.4948V58.5383H10.2807V62.4948H17.2807ZM17.2807 58.5383C17.2807 57.3449 16.8201 56.1229 15.8308 55.2275C14.8744 54.3619 13.7065 54.0519 12.6901 54.0519V61.0519C12.3315 61.0519 11.7089 60.9382 11.1334 60.4173C10.5249 59.8666 10.2807 59.1377 10.2807 58.5383H17.2807ZM12.6901 54.0519C11.669 54.0519 10.5023 54.3663 9.54952 55.2321C8.56537 56.1264 8.10547 57.3456 8.10547 58.5383H15.1055C15.1055 59.1371 14.8619 59.8631 14.2571 60.4127C13.6837 60.9337 13.0593 61.0519 12.6901 61.0519V54.0519ZM8.10547 58.5383V62.4948H15.1055V58.5383H8.10547ZM8.10547 62.4948C8.10547 66.4317 11.5022 68.8928 14.7983 68.8928V61.8928C14.7609 61.8928 14.8002 61.879 14.8811 61.9513C14.9241 61.9898 14.9818 62.0565 15.0295 62.1584C15.0791 62.2645 15.1055 62.3833 15.1055 62.4948H8.10547ZM14.7983 68.8928H15.8826V61.8928H14.7983V68.8928ZM12.3826 65.3928V67.8983H19.3826V65.3928H12.3826ZM12.3826 67.8983C12.3826 71.8296 15.7726 74.3 19.0754 74.3V67.3C19.0405 67.3 19.0804 67.2871 19.1604 67.3588C19.203 67.397 19.26 67.463 19.3072 67.5639C19.3563 67.6691 19.3826 67.787 19.3826 67.8983H12.3826ZM19.0754 74.3H60.1337V67.3H19.0754V74.3ZM60.1337 74.3C63.6141 74.3 66.8266 71.6732 66.8266 67.8983H59.8266C59.8266 67.6426 59.9443 67.457 60.0368 67.3716C60.1292 67.2863 60.185 67.3 60.1337 67.3V74.3ZM66.8266 67.8983V66.714H59.8266V67.8983H66.8266ZM66.8266 66.714C66.8266 63.727 64.2631 62.224 62.236 62.224V69.224C61.7629 69.224 61.2014 69.0668 60.7095 68.6409C60.1778 68.1805 59.8266 67.4782 59.8266 66.714H66.8266ZM62.236 62.224C61.215 62.224 60.0459 62.5383 59.0916 63.4079C58.1062 64.3059 57.6514 65.5264 57.6514 66.714H64.6514C64.6514 67.3039 64.4127 68.0295 63.8065 68.5818C63.2315 69.1059 62.6047 69.224 62.236 69.224V62.224ZM57.6514 66.714V67.8983H64.6514V66.714H57.6514ZM57.6514 67.8983C57.6514 67.1124 58.0173 66.4111 58.5403 65.9612C59.0236 65.5454 59.5787 65.3848 60.0608 65.3848V72.3848C62.06 72.3848 64.6514 70.9007 64.6514 67.8983H57.6514ZM60.0608 65.3848H18.9292V72.3848H60.0608V65.3848ZM18.9292 65.3848C19.4126 65.3848 19.9744 65.5466 20.4626 65.9699C20.9896 66.4268 21.3446 67.1276 21.3446 67.8983H14.3446C14.3446 70.8774 16.9026 72.3848 18.9292 72.3848V65.3848ZM21.3446 67.8983V65.3928H14.3446V67.8983H21.3446ZM17.8446 68.8928H55.8566V61.8928H17.8446V68.8928ZM55.8566 68.8928C59.3236 68.8928 62.5495 66.2729 62.5495 62.4948H55.5495C55.5495 62.2303 55.6713 62.0443 55.7603 61.9623C55.8492 61.8804 55.903 61.8928 55.8566 61.8928V68.8928ZM62.5495 62.4948V17.4768H55.5495V62.4948H62.5495ZM59.0495 20.9768H60.1337V13.9768H59.0495V20.9768ZM60.1337 20.9768C59.5025 20.9768 58.9519 20.7331 58.5501 20.3702C58.1533 20.0118 57.7243 19.3618 57.7243 18.4632H64.7243C64.7243 15.678 62.3021 13.9768 60.1337 13.9768V20.9768ZM57.7243 18.4632V62.5559H64.7243V18.4632H57.7243ZM57.7243 62.5559C57.7243 64.1635 58.6472 65.275 59.3128 65.8281C60.0622 66.4507 61.1066 66.9164 62.3089 66.9164V59.9164C62.9322 59.9164 63.4344 60.1516 63.7861 60.4439C64.0542 60.6667 64.7243 61.348 64.7243 62.5559H57.7243ZM62.3089 66.9164C64.7093 66.9164 66.8995 65.068 66.8995 62.43H59.8995C59.8995 60.8431 61.2123 59.9164 62.3089 59.9164V66.9164ZM66.8995 62.43V18.33H59.8995V62.43H66.8995ZM66.8995 18.33C66.8995 14.399 63.5097 11.9283 60.207 11.9283V18.9283C60.2415 18.9283 60.2016 18.941 60.1216 18.8694C60.079 18.8312 60.022 18.7652 59.9749 18.6643C59.9257 18.5592 59.8995 18.4413 59.8995 18.33H66.8995ZM60.207 11.9283H59.1164V18.9283H60.207V11.9283ZM62.6164 15.4283V12.8616H55.6164V15.4283H62.6164ZM62.6164 12.8616C62.6164 8.92836 59.2282 6.45996 55.9299 6.45996V13.46C55.9614 13.46 55.9196 13.4716 55.8387 13.3991C55.7956 13.3605 55.7384 13.294 55.6913 13.1931C55.6422 13.0879 55.6164 12.9709 55.6164 12.8616H62.6164ZM55.9299 6.45996H51.2141V13.46H55.9299V6.45996Z" fill="white" mask="url(#path-2-inside-1_40000168_26369)"/>
<mask id="path-4-inside-2_40000168_26369" fill="white">
<path fill-rule="evenodd" clip-rule="evenodd" d="M26.3959 6.24477C26.755 6.24477 27.1204 6.57235 27.1204 6.90355V8.22117H22.913V6.90355C22.913 6.57235 23.2784 6.24477 23.6374 6.24477H26.3959ZM30.0917 10.1255C30.5973 10.1255 31.1819 10.5179 31.1819 11.1155V14.9963H18.9977V11.1155C18.9244 10.6511 19.509 10.1255 20.0146 10.1255H30.0917ZM23.6374 4.19995C22.1153 4.19995 20.739 5.32314 20.739 6.83874V8.15274H19.9413C18.6383 8.15274 17.5485 8.81156 17.0433 9.79436H14.7963C12.9818 9.79436 11.6055 11.1155 11.6055 12.6923V53.9051C11.6788 54.5603 12.1111 54.9527 12.7626 54.9527C13.4201 54.9527 13.8524 54.5603 13.8524 53.9699V12.7572C13.8524 12.1668 14.2847 11.7744 14.9426 11.7744H16.8237V15.0648C16.8237 16.0548 17.7677 16.9727 18.9244 16.9727H31.2548C32.3386 16.9727 33.3555 16.116 33.3555 15.0648V11.7744H46.7633C47.4212 11.7744 47.8535 11.3748 47.8535 10.7844C47.8535 10.194 47.4212 9.79436 46.7633 9.79436H32.9901C32.4115 8.81156 31.3217 8.15274 30.0917 8.15274H29.294V6.83874C29.294 5.45634 27.991 4.19995 26.3959 4.19995H23.6374Z"/>
</mask>
<path fill-rule="evenodd" clip-rule="evenodd" d="M26.3959 6.24477C26.755 6.24477 27.1204 6.57235 27.1204 6.90355V8.22117H22.913V6.90355C22.913 6.57235 23.2784 6.24477 23.6374 6.24477H26.3959ZM30.0917 10.1255C30.5973 10.1255 31.1819 10.5179 31.1819 11.1155V14.9963H18.9977V11.1155C18.9244 10.6511 19.509 10.1255 20.0146 10.1255H30.0917ZM23.6374 4.19995C22.1153 4.19995 20.739 5.32314 20.739 6.83874V8.15274H19.9413C18.6383 8.15274 17.5485 8.81156 17.0433 9.79436H14.7963C12.9818 9.79436 11.6055 11.1155 11.6055 12.6923V53.9051C11.6788 54.5603 12.1111 54.9527 12.7626 54.9527C13.4201 54.9527 13.8524 54.5603 13.8524 53.9699V12.7572C13.8524 12.1668 14.2847 11.7744 14.9426 11.7744H16.8237V15.0648C16.8237 16.0548 17.7677 16.9727 18.9244 16.9727H31.2548C32.3386 16.9727 33.3555 16.116 33.3555 15.0648V11.7744H46.7633C47.4212 11.7744 47.8535 11.3748 47.8535 10.7844C47.8535 10.194 47.4212 9.79436 46.7633 9.79436H32.9901C32.4115 8.81156 31.3217 8.15274 30.0917 8.15274H29.294V6.83874C29.294 5.45634 27.991 4.19995 26.3959 4.19995H23.6374Z" fill="white"/>
<path d="M27.1204 8.22117V11.7212H30.6204V8.22117H27.1204ZM22.913 8.22117H19.413V11.7212H22.913V8.22117ZM31.1819 14.9963V18.4963H34.6819V14.9963H31.1819ZM18.9977 14.9963H15.4977V18.4963H18.9977V14.9963ZM18.9977 11.1155H22.4977V10.841L22.4549 10.5697L18.9977 11.1155ZM20.739 8.15274V11.6527H24.239V8.15274H20.739ZM17.0433 9.79436V13.2944H19.1794L20.156 11.3946L17.0433 9.79436ZM11.6055 53.9051H8.10547V54.1003L8.12718 54.2943L11.6055 53.9051ZM16.8237 11.7744H20.3237V8.27436H16.8237V11.7744ZM33.3555 11.7744V8.27436H29.8555V11.7744H33.3555ZM32.9901 9.79436L29.9739 11.57L30.9891 13.2944H32.9901V9.79436ZM29.294 8.15274H25.794V11.6527H29.294V8.15274ZM26.3959 9.74477C25.5506 9.74477 24.9249 9.3895 24.5442 9.04495C24.1838 8.71878 23.6204 8.00619 23.6204 6.90355H30.6204C30.6204 5.46972 29.8743 4.42774 29.2414 3.85497C28.5883 3.26383 27.6003 2.74477 26.3959 2.74477V9.74477ZM23.6204 6.90355V8.22117H30.6204V6.90355H23.6204ZM27.1204 4.72117H22.913V11.7212H27.1204V4.72117ZM26.413 8.22117V6.90355H19.413V8.22117H26.413ZM26.413 6.90355C26.413 8.0061 25.8497 8.71868 25.4893 9.0449C25.1085 9.38948 24.4828 9.74477 23.6374 9.74477V2.74477C22.433 2.74477 21.4451 3.26385 20.7919 3.85503C20.159 4.42783 19.413 5.46981 19.413 6.90355H26.413ZM23.6374 9.74477H26.3959V2.74477H23.6374V9.74477ZM30.0917 13.6255C29.5012 13.6255 28.9925 13.421 28.5984 13.0957C28.1609 12.7345 27.6819 12.0508 27.6819 11.1155H34.6819C34.6819 9.58264 33.9106 8.40394 33.0544 7.69721C32.2416 7.02627 31.1878 6.62554 30.0917 6.62554V13.6255ZM27.6819 11.1155V14.9963H34.6819V11.1155H27.6819ZM31.1819 11.4963H18.9977V18.4963H31.1819V11.4963ZM22.4977 14.9963V11.1155H15.4977V14.9963H22.4977ZM22.4549 10.5697C22.6729 11.9508 21.9108 12.7841 21.6949 12.9884C21.4246 13.2443 20.8766 13.6255 20.0146 13.6255V6.62554C18.647 6.62554 17.5539 7.26962 16.8832 7.90434C16.267 8.48757 15.2492 9.81589 15.5405 11.6613L22.4549 10.5697ZM20.0146 13.6255H30.0917V6.62554H20.0146V13.6255ZM23.6374 0.699951C20.6159 0.699951 17.239 2.98334 17.239 6.83874H24.239C24.239 7.20087 24.0602 7.46353 23.9297 7.57842C23.8204 7.67461 23.7214 7.69995 23.6374 7.69995V0.699951ZM17.239 6.83874V8.15274H24.239V6.83874H17.239ZM20.739 4.65274H19.9413V11.6527H20.739V4.65274ZM19.9413 4.65274C17.4647 4.65274 15.096 5.92705 13.9305 8.19412L20.156 11.3946C20.001 11.6961 19.8119 11.6527 19.9413 11.6527V4.65274ZM17.0433 6.29436H14.7963V13.2944H17.0433V6.29436ZM14.7963 6.29436C11.3151 6.29436 8.10547 8.92651 8.10547 12.6923H15.1055C15.1055 12.9546 14.9853 13.1399 14.8954 13.2229C14.8047 13.3067 14.7488 13.2944 14.7963 13.2944V6.29436ZM8.10547 12.6923V53.9051H15.1055V12.6923H8.10547ZM8.12718 54.2943C8.2408 55.3098 8.67646 56.4161 9.61728 57.2684C10.5627 58.125 11.7181 58.4527 12.7626 58.4527V51.4527C13.1556 51.4527 13.7691 51.5843 14.3172 52.0808C14.8606 52.5732 15.0435 53.1557 15.0838 53.5159L8.12718 54.2943ZM12.7626 58.4527C13.7793 58.4527 14.9454 58.1426 15.9004 57.2798C16.8883 56.3873 17.3524 55.1666 17.3524 53.9699H10.3524C10.3524 53.3637 10.6003 52.6344 11.2077 52.0857C11.7822 51.5667 12.4033 51.4527 12.7626 51.4527V58.4527ZM17.3524 53.9699V12.7572H10.3524V53.9699H17.3524ZM17.3524 12.7572C17.3524 13.3635 17.1044 14.0929 16.4968 14.6417C15.9222 15.1607 15.3012 15.2744 14.9426 15.2744V8.27436C13.9261 8.27436 12.76 8.5842 11.8048 9.44699C10.8166 10.3396 10.3524 11.5604 10.3524 12.7572H17.3524ZM14.9426 15.2744H16.8237V8.27436H14.9426V15.2744ZM13.3237 11.7744V15.0648H20.3237V11.7744H13.3237ZM13.3237 15.0648C13.3237 18.2289 16.0849 20.4727 18.9244 20.4727V13.4727C19.2791 13.4727 19.5921 13.6119 19.8213 13.8247C20.0363 14.0243 20.3237 14.4362 20.3237 15.0648H13.3237ZM18.9244 20.4727H31.2548V13.4727H18.9244V20.4727ZM31.2548 20.4727C33.8647 20.4727 36.8555 18.4322 36.8555 15.0648H29.8555C29.8555 14.4189 30.1676 13.9909 30.3893 13.7944C30.6038 13.6042 30.8938 13.4727 31.2548 13.4727V20.4727ZM36.8555 15.0648V11.7744H29.8555V15.0648H36.8555ZM33.3555 15.2744H46.7633V8.27436H33.3555V15.2744ZM46.7633 15.2744C47.7964 15.2744 48.9647 14.9529 49.9146 14.0859C50.8922 13.1936 51.3535 11.9779 51.3535 10.7844H44.3535C44.3535 10.1813 44.5986 9.46054 45.1956 8.91564C45.7649 8.39604 46.3881 8.27436 46.7633 8.27436V15.2744ZM51.3535 10.7844C51.3535 9.59086 50.8922 8.37514 49.9146 7.48284C48.9647 6.61584 47.7964 6.29436 46.7633 6.29436V13.2944C46.3881 13.2944 45.7649 13.1727 45.1956 12.6531C44.5986 12.1082 44.3535 11.3875 44.3535 10.7844H51.3535ZM46.7633 6.29436H32.9901V13.2944H46.7633V6.29436ZM36.0063 8.01877C34.8092 5.98531 32.5821 4.65274 30.0917 4.65274V11.6527C30.0765 11.6527 30.0554 11.6477 30.0364 11.6368C30.0214 11.6281 29.9975 11.61 29.9739 11.57L36.0063 8.01877ZM30.0917 4.65274H29.294V11.6527H30.0917V4.65274ZM32.794 8.15274V6.83874H25.794V8.15274H32.794ZM32.794 6.83874C32.794 3.27893 29.6702 0.699951 26.3959 0.699951V7.69995C26.2679 7.69995 26.1532 7.65071 26.0634 7.56747C25.9849 7.49465 25.794 7.26298 25.794 6.83874H32.794ZM26.3959 0.699951H23.6374V7.69995H26.3959V0.699951Z" fill="white" mask="url(#path-4-inside-2_40000168_26369)"/>
<mask id="path-6-inside-3_40000168_26369" fill="white">
<path fill-rule="evenodd" clip-rule="evenodd" d="M33.7973 25.8C33.1514 25.8 32.7227 26.2356 32.7227 26.88C32.7227 27.5244 33.1514 27.96 33.7973 27.96H50.7622C51.4081 27.96 51.8428 27.5244 51.8428 26.88C51.8428 26.2356 51.3356 25.8 50.7622 25.8H33.7973Z"/>
</mask>
<path fill-rule="evenodd" clip-rule="evenodd" d="M33.7973 25.8C33.1514 25.8 32.7227 26.2356 32.7227 26.88C32.7227 27.5244 33.1514 27.96 33.7973 27.96H50.7622C51.4081 27.96 51.8428 27.5244 51.8428 26.88C51.8428 26.2356 51.3356 25.8 50.7622 25.8H33.7973Z" fill="white"/>
<path d="M33.7973 22.3C32.6668 22.3 31.4614 22.6974 30.5329 23.6336C29.6075 24.5665 29.2227 25.7662 29.2227 26.88H36.2227C36.2227 27.3495 36.0522 28.0092 35.5026 28.5632C34.9499 29.1204 34.2819 29.3 33.7973 29.3V22.3ZM29.2227 26.88C29.2227 27.9939 29.6075 29.1936 30.5329 30.1265C31.4614 31.0626 32.6668 31.46 33.7973 31.46V24.46C34.2819 24.46 34.9499 24.6396 35.5026 25.1969C36.0522 25.7509 36.2227 26.4106 36.2227 26.88H29.2227ZM33.7973 31.46H50.7622V24.46H33.7973V31.46ZM50.7622 31.46C51.8909 31.46 53.0921 31.0642 54.0198 30.1364C54.9473 29.2087 55.3428 28.0079 55.3428 26.88H48.3428C48.3428 26.3966 48.521 25.7358 49.0696 25.187C49.6185 24.6381 50.2794 24.46 50.7622 24.46V31.46ZM55.3428 26.88C55.3428 24.1508 53.1132 22.3 50.7622 22.3V29.3C49.558 29.3 48.3428 28.3205 48.3428 26.88H55.3428ZM50.7622 22.3H33.7973V29.3H50.7622V22.3Z" fill="white" mask="url(#path-6-inside-3_40000168_26369)"/>
<path fill-rule="evenodd" clip-rule="evenodd" d="M33.7973 30.1199C33.1514 30.1199 32.7227 30.5555 32.7227 31.1999C32.7227 31.8443 33.1514 32.2799 33.7973 32.2799H50.7622C51.4081 32.2799 51.8428 31.8443 51.8428 31.1999C51.8428 30.5555 51.3356 30.1199 50.7622 30.1199H33.7973Z" fill="white"/>
<path fill-rule="evenodd" clip-rule="evenodd" d="M33.7973 38.407C33.1514 38.407 32.7227 38.9074 32.7227 39.4798C32.7227 40.1242 33.1514 40.5598 33.7973 40.5598H50.7622C51.4081 40.5598 51.8428 40.1242 51.8428 39.4798C51.8428 38.9074 51.3356 38.407 50.7622 38.407H33.7973Z" fill="white"/>
<path fill-rule="evenodd" clip-rule="evenodd" d="M33.7973 42.7229C33.1514 42.7229 32.7227 43.0829 32.7227 43.6193C32.7227 44.1557 33.1514 44.5193 33.7973 44.5193H50.7622C51.4081 44.5193 51.8428 44.1557 51.8428 43.6193C51.8428 43.0829 51.3356 42.7229 50.7622 42.7229H33.7973Z" fill="white"/>
<path fill-rule="evenodd" clip-rule="evenodd" d="M33.7973 51.0073C33.1514 51.0073 32.7227 51.4357 32.7227 52.0801C32.7227 52.6525 33.1514 53.1601 33.7973 53.1601H50.7622C51.4081 53.1601 51.8428 52.6525 51.8428 52.0801C51.8428 51.4357 51.3356 51.0073 50.7622 51.0073H33.7973Z" fill="white"/>
<path fill-rule="evenodd" clip-rule="evenodd" d="M33.7973 55.3242C33.1514 55.3242 32.7227 55.6842 32.7227 56.2206C32.7227 56.7642 33.1514 57.1206 33.7973 57.1206H50.7622C51.4081 57.1206 51.8428 56.7642 51.8428 56.2206C51.8428 55.6842 51.3356 55.3242 50.7622 55.3242H33.7973Z" fill="white"/>
<path fill-rule="evenodd" clip-rule="evenodd" d="M27.4813 26.4583V26.9083L25.3607 28.5247L24.3343 27.5527C24.1374 27.3115 23.8302 27.1963 23.523 27.1963C23.2648 27.1963 23.0002 27.2791 22.7974 27.4303C22.3611 27.7507 22.3611 28.3951 22.6564 28.8451L24.408 30.4615C24.6291 30.6559 24.8507 30.7855 25.2133 30.7855C25.5081 30.7855 25.7297 30.6559 25.9449 30.5263L27.555 29.3671L27.4813 32.2075H20.9721V26.4583H27.4813ZM31.1081 24.3667C30.8559 24.3667 30.6041 24.4531 30.4136 24.6511L29.3872 25.3639C29.0919 24.8419 28.5819 24.5215 27.924 24.5215H20.3879C19.5089 24.5215 18.7773 25.1695 18.7773 26.0083V32.5927C18.7773 33.4351 19.5089 34.0795 20.3879 34.0795H27.924C28.803 34.0795 29.5346 33.4351 29.5346 32.5927V27.6859L31.7289 26.0083C32.3131 25.7491 32.3131 25.1011 31.9501 24.7123C31.7472 24.4999 31.4277 24.3667 31.1081 24.3667Z" fill="white"/>
<path fill-rule="evenodd" clip-rule="evenodd" d="M27.4813 39.0515V39.505L25.3607 41.1394L24.3343 40.1566C24.1438 39.955 23.8549 39.8579 23.5597 39.8579C23.2832 39.8579 23.0126 39.937 22.7974 40.0918C22.3611 40.4194 22.3611 41.071 22.6564 41.4598L24.408 43.0942C24.6291 43.357 24.8507 43.4218 25.2133 43.4218C25.5081 43.4218 25.7297 43.357 25.9449 43.159L27.555 42.0538L27.4813 44.7898H20.9721V39.0515H27.4813ZM31.1388 36.967C30.8746 36.967 30.6101 37.0462 30.4136 37.2298L29.3872 37.9462C29.0919 37.4854 28.5819 37.0318 27.924 37.0318H20.3879C19.5089 37.0318 18.7773 37.6834 18.7773 38.533V45.1786C18.7773 46.0282 19.5089 46.6798 20.3879 46.6798H27.924C28.803 46.6798 29.5346 46.0282 29.5346 45.1786V40.2898L31.7289 38.5979C32.3131 38.2703 32.3131 37.7482 31.9501 37.2874C31.7472 37.0786 31.446 36.967 31.1388 36.967Z" fill="white"/>
<path fill-rule="evenodd" clip-rule="evenodd" d="M27.4813 51.5474V52.2746L25.3607 53.927L24.3343 52.9334C24.1438 52.7282 23.8549 52.6274 23.5597 52.6274C23.2832 52.6274 23.0126 52.7102 22.7974 52.865C22.3611 53.1314 22.3611 53.8586 22.6564 54.2546L24.408 55.907C24.6291 56.1734 24.8507 56.2346 25.2133 56.2346C25.5081 56.2346 25.7297 56.1734 25.9449 55.9754L27.555 54.8486L27.4813 57.3614H20.9721V51.5474H27.4813ZM20.3879 49.5674C19.5089 49.5674 18.7773 50.2262 18.7773 51.0182V57.8222C18.7773 58.6142 19.5089 59.273 20.3879 59.273H27.924C28.803 59.273 29.5346 58.6142 29.5346 57.8222V53.0666L31.7289 51.3458C32.239 51.0182 32.3131 50.3594 31.8764 49.9598C31.7229 49.8194 31.446 49.7366 31.1512 49.7366C30.8929 49.7366 30.6164 49.805 30.4136 49.9598L29.4609 50.6186C29.3131 50.0246 28.6556 49.5674 27.924 49.5674H20.3879Z" fill="white"/>
</g>
</svg>
