<svg width="21" height="20" viewBox="0 0 21 20" fill="none" xmlns="http://www.w3.org/2000/svg">
<rect width="20" height="20" transform="translate(0.5)" fill="white"/>
<path fill-rule="evenodd" clip-rule="evenodd" d="M9.875 15H11.125V16.25H9.875V15ZM9.875 17.5H11.125C11.815 17.5 12.375 16.94 12.375 16.25V15C12.375 14.31 11.815 13.75 11.125 13.75H9.875C9.185 13.75 8.625 14.31 8.625 15V16.25C8.625 16.94 9.185 17.5 9.875 17.5ZM4.875 15H6.125V16.25H4.875V15ZM4.875 17.5H6.125C6.815 17.5 7.375 16.94 7.375 16.25V15C7.375 14.31 6.815 13.75 6.125 13.75H4.875C4.185 13.75 3.625 14.31 3.625 15V16.25C3.625 16.94 4.185 17.5 4.875 17.5ZM9.875 10H11.125V11.25H9.875V10ZM9.875 12.5H11.125C11.815 12.5 12.375 11.94 12.375 11.25V10C12.375 9.31 11.815 8.75 11.125 8.75H9.875C9.185 8.75 8.625 9.31 8.625 10V11.25C8.625 11.94 9.185 12.5 9.875 12.5ZM4.875 10H6.125V11.25H4.875V10ZM4.875 12.5H6.125C6.815 12.5 7.375 11.94 7.375 11.25V10C7.375 9.31 6.815 8.75 6.125 8.75H4.875C4.185 8.75 3.625 9.31 3.625 10V11.25C3.625 11.94 4.185 12.5 4.875 12.5ZM18.625 5H2.375V3.75C2.375 3.06 2.935 2.5 3.625 2.5H6.125V3.125C6.125 3.47062 6.40438 3.75 6.75 3.75C7.09562 3.75 7.375 3.47062 7.375 3.125V2.5H13.625V3.125C13.625 3.47062 13.9044 3.75 14.25 3.75C14.5956 3.75 14.875 3.47062 14.875 3.125V2.5H17.375C18.065 2.5 18.625 3.06 18.625 3.75V5ZM18.625 17.5C18.625 18.19 18.065 18.75 17.375 18.75H3.625C2.935 18.75 2.375 18.19 2.375 17.5V6.25H18.625V17.5ZM17.375 1.25H14.875V0.625C14.875 0.28 14.5956 0 14.25 0C13.9044 0 13.625 0.28 13.625 0.625V1.25H7.375V0.625C7.375 0.28 7.09562 0 6.75 0C6.40438 0 6.125 0.28 6.125 0.625V1.25H3.625C2.24437 1.25 1.125 2.36937 1.125 3.75V17.5C1.125 18.8806 2.24437 20 3.625 20H17.375C18.7556 20 19.875 18.8806 19.875 17.5V3.75C19.875 2.36937 18.7556 1.25 17.375 1.25ZM14.875 10H16.125V11.25H14.875V10ZM14.875 12.5H16.125C16.815 12.5 17.375 11.94 17.375 11.25V10C17.375 9.31 16.815 8.75 16.125 8.75H14.875C14.185 8.75 13.625 9.31 13.625 10V11.25C13.625 11.94 14.185 12.5 14.875 12.5ZM14.875 15H16.125V16.25H14.875V15ZM14.875 17.5H16.125C16.815 17.5 17.375 16.94 17.375 16.25V15C17.375 14.31 16.815 13.75 16.125 13.75H14.875C14.185 13.75 13.625 14.31 13.625 15V16.25C13.625 16.94 14.185 17.5 14.875 17.5Z" fill="#0070BA"/>
</svg>
