<svg width="18" height="18" viewBox="0 0 18 18" fill="none" xmlns="http://www.w3.org/2000/svg">
<path d="M16.5 14.7282V8.05525C16.5 7.23513 16.1438 6.46097 15.5348 5.95747L11.0465 2.24642C9.84275 1.25119 8.15725 1.25119 6.95353 2.24642L2.46515 5.95747C1.85618 6.46097 1.5 7.23513 1.5 8.05525V14.7282C1.5 15.7067 2.24619 16.5 3.16667 16.5H4.83333C5.75381 16.5 6.5 15.7538 6.5 14.8333V12.0707C6.5 11.0922 7.24619 10.2989 8.16667 10.2989H9.83333C10.7538 10.2989 11.5 11.0922 11.5 12.0707V14.8333C11.5 15.7538 12.2462 16.5 13.1667 16.5H14.8333C15.7538 16.5 16.5 15.7067 16.5 14.7282Z" stroke="white" stroke-width="1.75"/>
</svg>
