<svg width="20" height="21" viewBox="0 0 20 21" fill="none" xmlns="http://www.w3.org/2000/svg">
<g clip-path="url(#clip0_40000372_23327)">
<path d="M5.76449 13.0071C5.76145 12.976 5.75168 12.9473 5.75168 12.9162V12.6495C5.75168 12.5225 5.77242 12.3974 5.81395 12.2784C5.81395 12.2784 6.47863 11.3885 6.79297 10.3429C6.44871 9.6166 6.13621 8.7127 6.13621 7.81668C6.13621 7.60855 6.15149 7.40715 6.17285 7.20875C5.72426 6.73879 5.11817 6.47266 4.4486 6.47266C3.06613 6.47266 1.94434 7.60059 1.94434 9.35352C1.94434 10.7561 3.08571 12.2783 3.08571 12.2783C3.12598 12.3973 3.14676 12.5225 3.14676 12.6494V12.9161C3.14676 13.2488 2.95266 13.5515 2.64992 13.6901L0.837775 14.4304C0.416604 14.6245 0.116916 15.0115 0.0333224 15.4668L0.00218955 15.8654C-0.0136698 16.0729 0.0571114 16.2773 0.198713 16.4293C0.33969 16.5825 0.538088 16.6686 0.746213 16.6686H3.70824L3.82969 15.1079L3.83762 15.0658C3.98594 14.2473 4.52672 13.5515 5.28231 13.2036L5.76449 13.0071Z" fill="#0070BA"/>
<path d="M19.9661 15.4668C19.8831 15.0115 19.5834 14.6245 19.1623 14.4304L17.3489 13.6901C17.0462 13.5515 16.8533 13.2488 16.8533 12.9161V12.6494C16.8533 12.5225 16.8734 12.3973 16.9149 12.2783C16.9149 12.2783 18.0557 10.7561 18.0557 9.35352C18.0557 7.60059 16.9345 6.47266 15.5496 6.47266C14.8812 6.47266 14.2752 6.73879 13.8253 7.20996C13.8473 7.40773 13.8625 7.60852 13.8625 7.81664C13.8625 8.71203 13.5507 9.61598 13.207 10.3423C13.5207 11.3878 14.1866 12.2783 14.1866 12.2783C14.2269 12.3973 14.2483 12.5225 14.2483 12.6494V12.9161C14.2483 12.9473 14.2379 12.9759 14.2348 13.0071L14.6841 13.1902C15.4714 13.5503 16.0122 14.2461 16.1623 15.0646L16.1697 15.1073L16.2905 16.6686H19.2538C19.4619 16.6686 19.6603 16.5825 19.8007 16.4293C19.9423 16.2773 20.0131 16.0729 19.9972 15.8654L19.9661 15.4668Z" fill="#0070BA"/>
<path d="M14.369 13.9612L12.1754 13.0646C11.8092 12.8961 11.5754 12.5299 11.5754 12.1283V11.8048C11.5754 11.6522 11.5998 11.5002 11.6505 11.3556C11.6505 11.3556 13.0299 9.51477 13.0299 7.81676C13.0299 5.69516 11.6731 4.33105 9.99891 4.33105C8.32531 4.33105 6.96789 5.6952 6.96789 7.81676C6.96789 9.51477 8.34852 11.3556 8.34852 11.3556C8.39797 11.5002 8.42359 11.6522 8.42359 11.8048V12.1283C8.42359 12.5299 8.18801 12.8961 7.82238 13.0646L5.62879 13.9612C5.11914 14.1949 4.75598 14.6637 4.6559 15.2154L4.54297 16.6687H9.99891H15.4548L15.3432 15.2154C15.2418 14.6637 14.8786 14.195 14.369 13.9612Z" fill="#0070BA"/>
</g>
<defs>
<clipPath id="clip0_40000372_23327">
<rect width="20" height="20" fill="white" transform="translate(0 0.5)"/>
</clipPath>
</defs>
</svg>
